<svg fill="#000000" xmlns="http://www.w3.org/2000/svg"  viewBox="0 0 50 50" width="50px" height="50px"><path d="M 25 2 C 12.309295 2 2 12.309295 2 25 C 2 37.690705 12.309295 48 25 48 C 37.690705 48 48 37.690705 48 25 C 48 12.309295 37.690705 2 25 2 z M 25 4 C 36.609824 4 46 13.390176 46 25 C 46 36.609824 36.609824 46 25 46 C 13.390176 46 4 36.609824 4 25 C 4 13.390176 13.390176 4 25 4 z M 25 10 A 1.0001 1.0001 0 0 0 24.642578 10.072266 C 20.962385 10.269549 18 13.272247 18 17 L 18 19 L 14 19 A 1.0001 1.0001 0 0 0 13 20 L 13 36 A 1.0001 1.0001 0 0 0 14 37 L 36 37 A 1.0001 1.0001 0 0 0 37 36 L 37 20 A 1.0001 1.0001 0 0 0 36 19 L 32 19 L 32 17 C 32 13.145666 28.854334 10 25 10 z M 25 12 C 27.773666 12 30 14.226334 30 17 L 30 19 L 20 19 L 20 17 C 20 14.226334 22.226334 12 25 12 z M 15 21 L 35 21 L 35 23 L 15 23 L 15 21 z M 15 25 L 22 25 L 22 27 L 15 27 L 15 25 z M 24 25 L 26 25 L 26 31 L 24 31 L 24 25 z M 28 25 L 35 25 L 35 27 L 28 27 L 28 25 z M 15 29 L 22 29 L 22 31 L 15 31 L 15 29 z M 28 29 L 35 29 L 35 31 L 28 31 L 28 29 z M 15 33 L 35 33 L 35 35 L 15 35 L 15 33 z"/></svg>